<mxfile host="Electron" modified="2023-05-11T19:38:39.163Z" agent="Mozilla/5.0 (Windows NT 10.0; Win64; x64) AppleWebKit/537.36 (KHTML, like Gecko) draw.io/21.1.2 Chrome/106.0.5249.199 Electron/21.4.3 Safari/537.36" etag="Jbb3Rd7TI_TpJ6b8k_82" version="21.1.2" type="device">
  <diagram name="Page-1" id="2YBvvXClWsGukQMizWep">
    <mxGraphModel dx="863" dy="512" grid="1" gridSize="10" guides="1" tooltips="1" connect="1" arrows="1" fold="1" page="1" pageScale="1" pageWidth="850" pageHeight="1100" math="0" shadow="0">
      <root>
        <mxCell id="0" />
        <mxCell id="1" parent="0" />
        <mxCell id="aM9ryv3xv72pqoxQDRHE-1" value="Jira" style="shape=umlLifeline;perimeter=lifelinePerimeter;whiteSpace=wrap;html=1;container=0;dropTarget=0;collapsible=0;recursiveResize=0;outlineConnect=0;portConstraint=eastwest;newEdgeStyle={&quot;edgeStyle&quot;:&quot;elbowEdgeStyle&quot;,&quot;elbow&quot;:&quot;vertical&quot;,&quot;curved&quot;:0,&quot;rounded&quot;:0};" parent="1" vertex="1">
          <mxGeometry x="230" y="45" width="100" height="375" as="geometry" />
        </mxCell>
        <mxCell id="88n81cePj3BCQP4_Mqd0-8" value="" style="html=1;points=[];perimeter=orthogonalPerimeter;outlineConnect=0;targetShapes=umlLifeline;portConstraint=eastwest;newEdgeStyle={&quot;edgeStyle&quot;:&quot;elbowEdgeStyle&quot;,&quot;elbow&quot;:&quot;vertical&quot;,&quot;curved&quot;:0,&quot;rounded&quot;:0};" vertex="1" parent="aM9ryv3xv72pqoxQDRHE-1">
          <mxGeometry x="45" y="225" width="10" height="35" as="geometry" />
        </mxCell>
        <mxCell id="88n81cePj3BCQP4_Mqd0-13" value="" style="html=1;points=[];perimeter=orthogonalPerimeter;outlineConnect=0;targetShapes=umlLifeline;portConstraint=eastwest;newEdgeStyle={&quot;edgeStyle&quot;:&quot;elbowEdgeStyle&quot;,&quot;elbow&quot;:&quot;vertical&quot;,&quot;curved&quot;:0,&quot;rounded&quot;:0};" vertex="1" parent="aM9ryv3xv72pqoxQDRHE-1">
          <mxGeometry x="45" y="285" width="10" height="35" as="geometry" />
        </mxCell>
        <mxCell id="aM9ryv3xv72pqoxQDRHE-5" value="Postman" style="shape=umlLifeline;perimeter=lifelinePerimeter;whiteSpace=wrap;html=1;container=0;dropTarget=0;collapsible=0;recursiveResize=0;outlineConnect=0;portConstraint=eastwest;newEdgeStyle={&quot;edgeStyle&quot;:&quot;elbowEdgeStyle&quot;,&quot;elbow&quot;:&quot;vertical&quot;,&quot;curved&quot;:0,&quot;rounded&quot;:0};" parent="1" vertex="1">
          <mxGeometry x="380" y="45" width="100" height="375" as="geometry" />
        </mxCell>
        <mxCell id="88n81cePj3BCQP4_Mqd0-9" value="" style="html=1;points=[];perimeter=orthogonalPerimeter;outlineConnect=0;targetShapes=umlLifeline;portConstraint=eastwest;newEdgeStyle={&quot;edgeStyle&quot;:&quot;elbowEdgeStyle&quot;,&quot;elbow&quot;:&quot;vertical&quot;,&quot;curved&quot;:0,&quot;rounded&quot;:0};" vertex="1" parent="aM9ryv3xv72pqoxQDRHE-5">
          <mxGeometry x="45" y="165" width="10" height="35" as="geometry" />
        </mxCell>
        <mxCell id="UP8myAZJ4LmZ-0JdHzh--1" value="Serveur d&#39;authentification" style="shape=umlLifeline;perimeter=lifelinePerimeter;whiteSpace=wrap;html=1;container=0;dropTarget=0;collapsible=0;recursiveResize=0;outlineConnect=0;portConstraint=eastwest;newEdgeStyle={&quot;edgeStyle&quot;:&quot;elbowEdgeStyle&quot;,&quot;elbow&quot;:&quot;vertical&quot;,&quot;curved&quot;:0,&quot;rounded&quot;:0};" parent="1" vertex="1">
          <mxGeometry x="530" y="45" width="100" height="375" as="geometry" />
        </mxCell>
        <mxCell id="88n81cePj3BCQP4_Mqd0-4" value="" style="html=1;points=[];perimeter=orthogonalPerimeter;outlineConnect=0;targetShapes=umlLifeline;portConstraint=eastwest;newEdgeStyle={&quot;edgeStyle&quot;:&quot;elbowEdgeStyle&quot;,&quot;elbow&quot;:&quot;vertical&quot;,&quot;curved&quot;:0,&quot;rounded&quot;:0};" vertex="1" parent="UP8myAZJ4LmZ-0JdHzh--1">
          <mxGeometry x="45" y="165" width="10" height="35" as="geometry" />
        </mxCell>
        <mxCell id="UP8myAZJ4LmZ-0JdHzh--5" value="Actor" style="shape=umlActor;verticalLabelPosition=bottom;verticalAlign=top;html=1;" parent="1" vertex="1">
          <mxGeometry x="20" y="80" width="100" height="190" as="geometry" />
        </mxCell>
        <mxCell id="aM9ryv3xv72pqoxQDRHE-3" value="Création App + Définition scope&amp;nbsp;" style="html=1;verticalAlign=bottom;startArrow=oval;endArrow=block;startSize=8;edgeStyle=elbowEdgeStyle;elbow=vertical;curved=0;rounded=0;" parent="1" target="aM9ryv3xv72pqoxQDRHE-1" edge="1" source="UP8myAZJ4LmZ-0JdHzh--5">
          <mxGeometry x="-0.1111" y="10" relative="1" as="geometry">
            <mxPoint x="145" y="135" as="sourcePoint" />
            <mxPoint as="offset" />
            <Array as="points">
              <mxPoint x="195" y="125" />
            </Array>
            <mxPoint x="225" y="125" as="targetPoint" />
          </mxGeometry>
        </mxCell>
        <mxCell id="88n81cePj3BCQP4_Mqd0-2" value="Client Id &amp;amp; Client Secret" style="html=1;verticalAlign=bottom;endArrow=open;dashed=1;endSize=8;edgeStyle=elbowEdgeStyle;elbow=vertical;curved=0;rounded=0;" edge="1" parent="1" source="aM9ryv3xv72pqoxQDRHE-1" target="UP8myAZJ4LmZ-0JdHzh--5">
          <mxGeometry x="0.0476" y="-5" relative="1" as="geometry">
            <mxPoint x="130" y="180" as="targetPoint" />
            <Array as="points">
              <mxPoint x="130" y="174.92" />
            </Array>
            <mxPoint x="225" y="174.91999999999996" as="sourcePoint" />
            <mxPoint as="offset" />
          </mxGeometry>
        </mxCell>
        <mxCell id="88n81cePj3BCQP4_Mqd0-3" value="Client Id &amp;amp; Client Secret" style="html=1;verticalAlign=bottom;endArrow=block;edgeStyle=elbowEdgeStyle;elbow=vertical;curved=0;rounded=0;" edge="1" parent="1" source="UP8myAZJ4LmZ-0JdHzh--5" target="88n81cePj3BCQP4_Mqd0-9">
          <mxGeometry relative="1" as="geometry">
            <mxPoint x="230" y="210" as="sourcePoint" />
            <Array as="points">
              <mxPoint x="315" y="210" />
            </Array>
            <mxPoint x="420" y="210" as="targetPoint" />
          </mxGeometry>
        </mxCell>
        <mxCell id="88n81cePj3BCQP4_Mqd0-5" value="Client Id &amp;amp; Client Secret" style="html=1;verticalAlign=bottom;endArrow=block;edgeStyle=elbowEdgeStyle;elbow=vertical;curved=0;rounded=0;" edge="1" parent="1" source="88n81cePj3BCQP4_Mqd0-9">
          <mxGeometry relative="1" as="geometry">
            <mxPoint x="440" y="220" as="sourcePoint" />
            <Array as="points">
              <mxPoint x="495" y="210" />
            </Array>
            <mxPoint x="580" y="210" as="targetPoint" />
          </mxGeometry>
        </mxCell>
        <mxCell id="88n81cePj3BCQP4_Mqd0-6" value="Access Token" style="html=1;verticalAlign=bottom;endArrow=open;dashed=1;endSize=8;edgeStyle=elbowEdgeStyle;elbow=vertical;curved=0;rounded=0;" edge="1" parent="1" source="88n81cePj3BCQP4_Mqd0-4" target="88n81cePj3BCQP4_Mqd0-9">
          <mxGeometry x="0.0476" y="-5" relative="1" as="geometry">
            <mxPoint x="440" y="240" as="targetPoint" />
            <Array as="points">
              <mxPoint x="540" y="240" />
              <mxPoint x="520" y="250" />
              <mxPoint x="520" y="240" />
            </Array>
            <mxPoint x="565" y="239.99999999999994" as="sourcePoint" />
            <mxPoint as="offset" />
          </mxGeometry>
        </mxCell>
        <mxCell id="88n81cePj3BCQP4_Mqd0-7" value="Access Token" style="html=1;verticalAlign=bottom;endArrow=block;edgeStyle=elbowEdgeStyle;elbow=vertical;curved=0;rounded=0;" edge="1" parent="1" source="aM9ryv3xv72pqoxQDRHE-5" target="88n81cePj3BCQP4_Mqd0-8">
          <mxGeometry relative="1" as="geometry">
            <mxPoint x="270" y="270" as="sourcePoint" />
            <Array as="points">
              <mxPoint x="345" y="270" />
            </Array>
            <mxPoint x="290" y="270" as="targetPoint" />
          </mxGeometry>
        </mxCell>
        <mxCell id="88n81cePj3BCQP4_Mqd0-10" value="Cloud Id" style="html=1;verticalAlign=bottom;endArrow=open;dashed=1;endSize=8;edgeStyle=elbowEdgeStyle;elbow=vertical;curved=0;rounded=0;" edge="1" parent="1" source="88n81cePj3BCQP4_Mqd0-8" target="aM9ryv3xv72pqoxQDRHE-5">
          <mxGeometry x="0.0381" relative="1" as="geometry">
            <mxPoint x="300" y="310" as="targetPoint" />
            <Array as="points">
              <mxPoint x="320" y="300" />
              <mxPoint x="405" y="310" />
              <mxPoint x="385" y="320" />
              <mxPoint x="385" y="310" />
            </Array>
            <mxPoint x="440" y="310" as="sourcePoint" />
            <mxPoint as="offset" />
          </mxGeometry>
        </mxCell>
        <mxCell id="88n81cePj3BCQP4_Mqd0-11" value="Cloud Id" style="html=1;verticalAlign=bottom;endArrow=block;edgeStyle=elbowEdgeStyle;elbow=vertical;curved=0;rounded=0;" edge="1" parent="1" target="88n81cePj3BCQP4_Mqd0-13">
          <mxGeometry x="-0.037" relative="1" as="geometry">
            <mxPoint x="425" y="330" as="sourcePoint" />
            <Array as="points">
              <mxPoint x="340" y="330" />
            </Array>
            <mxPoint x="290" y="330" as="targetPoint" />
            <mxPoint as="offset" />
          </mxGeometry>
        </mxCell>
        <mxCell id="88n81cePj3BCQP4_Mqd0-14" value="Return data" style="html=1;verticalAlign=bottom;endArrow=open;dashed=1;endSize=8;edgeStyle=elbowEdgeStyle;elbow=vertical;curved=0;rounded=0;" edge="1" parent="1">
          <mxGeometry x="0.0381" relative="1" as="geometry">
            <mxPoint x="425" y="360" as="targetPoint" />
            <Array as="points">
              <mxPoint x="315" y="360" />
              <mxPoint x="400" y="370" />
              <mxPoint x="380" y="380" />
              <mxPoint x="380" y="370" />
            </Array>
            <mxPoint x="290" y="360" as="sourcePoint" />
            <mxPoint as="offset" />
          </mxGeometry>
        </mxCell>
      </root>
    </mxGraphModel>
  </diagram>
</mxfile>
